<svg xmlns="http://www.w3.org/2000/svg" height="31.65" width="27.1" xml:space="preserve" viewBox="0 0 27.1 31.649999"
     y="0px" x="0px" id="Ebene_1" version="1.1">
  <defs id="defs25"/>
  <style id="style2" type="text/css"> .st0{fill:#FF0000;} .st1{fill:#FFCC00;}</style>
  <path style="stroke-width:0.99296594" id="path6" d="M 27.1,10.549999 H 23.2 V -7.6293945e-7 h 3.9 z"/>
  <path style="fill:#ff0000;stroke-width:0.99296594" id="path8" d="M 27.1,21.1 H 23.2 V 10.55 h 3.9 z" class="st0"/>
  <path style="fill:#ffcc00;stroke-width:0.9976387" id="path10" d="m 27.1,31.649999 h -3.9 v -10.55 h 3.9 z"
        class="st1"/>
  <g transform="translate(-0.0313452,-0.00462145)" id="g850"><path id="path11-4" d="m 11.804485,9.8523615 c 0.02255,-0.187034 0.03591,-0.379913 0.03591,-0.576967 0,-0.107712 8.49e-4,-0.232958 -0.01252,-0.374904 1.664104,-0.02338 3.123641,-1.222403 3.123641,-2.600946 0,-0.701379 -0.457567,-1.230753 -0.715574,-1.547209 0.05761,-0.01252 0.116062,-0.02589 0.175345,-0.04008 0.243814,0.212084 0.935172,0.965231 0.935172,1.916268 0,1.654085 -1.65325,3.189604 -3.541964,3.223837 m -1.676632,-5.760491 c -0.0309,-0.184529 -0.101032,-0.351524 -0.207908,-0.495139 0.0058,-0.168665 0.075143,-0.329815 0.346514,-0.197055 -0.146955,0.150296 -0.0334,0.416653 -0.0334,0.416653 0,0 0.30059,-0.139441 0.237967,-0.338165 0.445877,0.106877 0.125247,0.705554 -0.343175,0.613706 m -0.386594,0.84917 c -0.05928,-0.247153 -0.1862,-0.500985 -0.34735,-0.692195 -0.146955,-0.173674 -0.389933,-0.379913 -0.717243,-0.379913 -0.14946,0 -0.399953,0.07014 -0.559433,0.137771 -0.05928,-0.108547 -0.175345,-0.369894 -0.175345,-0.487625 0,-0.121072 0.20457,-0.243813 0.596172,-0.243813 0.861695,0 1.376038,0.389098 1.376038,1.042049 0,0.229618 -0.09101,0.438362 -0.172839,0.623726 M 11.95395,16.046208 c 0.100197,0 0.148626,0.01587 0.207074,0.03757 0.247987,0.67466 1.204034,1.947996 1.244112,2.002269 l 0.0083,0.01169 0.0142,-0.0034 c 0.234629,-0.03757 0.833306,-0.127751 1.334291,-0.127751 h 0.01169 c 0.05427,0 0.116061,0 0.155305,0.0384 0.03256,0.03256 0.04843,0.08935 0.04843,0.170335 0,0.124411 -0.0526,0.337329 -0.116061,0.428341 -0.175344,-0.191209 -0.460071,-0.27721 -0.915967,-0.27721 -0.136935,0 -0.298921,0.04091 -0.386594,0.0643 l -0.03591,0.0075 -0.04091,0.01086 0.263018,0.263019 c 0.405798,0.405797 0.756487,0.755651 0.756487,0.988609 0,0.140276 -0.136936,0.323135 -0.262182,0.404128 -0.02755,-0.426672 -0.458401,-0.997795 -0.878394,-1.31759 l -0.03591,-0.02672 -0.0066,0.150296 c -0.0058,0.101867 -0.01502,0.254668 -0.01502,0.418323 0,0.81243 -0.08266,0.936006 -0.364049,0.936006 -0.04342,0 -0.109382,-0.01252 -0.150295,-0.02755 0.158645,-0.19622 0.221268,-0.455062 0.221268,-0.909288 l -0.0025,-0.209578 -0.0025,-0.168665 c 0,-0.1862 0.0192,-0.323971 0.03423,-0.435023 l 0.0083,-0.06262 -0.04426,-0.0058 c -0.131926,-0.01837 -0.376573,-0.05177 -0.563607,-0.05177 -0.401623,0 -0.673825,0.03674 -0.870879,0.222103 -0.130256,-0.105207 -0.263852,-0.286396 -0.263852,-0.400788 0,-0.169499 0.105207,-0.182859 0.243813,-0.182859 0.07014,0 0.135265,0.01002 0.225444,0.02087 0.172839,0.02588 0.432516,0.0643 0.967735,0.0643 h 0.0334 l -0.01085,-0.03256 c -0.135266,-0.388263 -0.507665,-0.952706 -1.104671,-1.678299 0.05344,-0.19455 0.106041,-0.321466 0.29391,-0.321466 m -5.155134,1.999765 -0.01085,0.03256 h 0.0334 c 0.534385,0 0.794897,-0.03841 0.967736,-0.0643 0.09018,-0.01085 0.155306,-0.02087 0.225444,-0.02087 0.137771,0 0.243813,0.01336 0.243813,0.182859 0,0.114392 -0.133596,0.295581 -0.263018,0.400788 -0.197888,-0.185365 -0.47009,-0.222103 -0.870878,-0.222103 -0.18787,0 -0.433352,0.0334 -0.564443,0.05177 l -0.02087,0.0025 -0.02338,0.0034 0.0075,0.06262 c 0.01587,0.111051 0.03507,0.248822 0.03507,0.435022 l -0.0025,0.168664 -0.0025,0.20958 c 0,0.454226 0.06262,0.713067 0.222103,0.909286 -0.04175,0.01502 -0.107712,0.02755 -0.151131,0.02755 -0.282221,0 -0.364049,-0.123576 -0.364049,-0.936008 0,-0.163655 -0.0083,-0.316456 -0.0142,-0.418321 l -0.0083,-0.151131 -0.03507,0.02756 c -0.419157,0.319795 -0.851674,0.890918 -0.877558,1.31759 -0.126082,-0.08099 -0.263018,-0.263852 -0.263018,-0.404128 0,-0.232958 0.35069,-0.582812 0.756488,-0.988609 l 0.232958,-0.232959 0.03006,-0.03006 -0.07682,-0.01837 c -0.08767,-0.02338 -0.249658,-0.0643 -0.387429,-0.0643 -0.455062,0 -0.738953,0.086 -0.915133,0.277212 -0.06345,-0.09101 -0.116061,-0.303931 -0.116061,-0.428343 0,-0.08099 0.01587,-0.137771 0.04843,-0.170334 0.03925,-0.03841 0.101032,-0.03841 0.155305,-0.03841 h 0.01169 c 0.500985,0 1.100497,0.09018 1.33429,0.127752 l 0.0142,0.0034 0.0083,-0.01169 c 0.04091,-0.05427 0.9961248,-1.327608 1.2449468,-2.002269 0.05678,-0.02171 0.106042,-0.03757 0.206239,-0.03757 0.187869,0 0.240473,0.126916 0.294746,0.321466 -0.597842,0.725593 -0.970241,1.290035 -1.105507,1.678298 M 4.2171852,6.6285395 c 0,-0.951036 0.692193,-1.704183 0.936006,-1.916267 0.05845,0.0142 0.116897,0.02755 0.175345,0.04008 -0.258842,0.316456 -0.716408,0.84583 -0.716408,1.547208 0,1.392738 1.487925,2.601782 3.1729028,2.601782 -0.01085,0.119401 -0.0167,0.244648 -0.0167,0.374068 0,0.205404 0.01169,0.396614 0.03173,0.576968 -1.9054148,-0.01169 -3.5828788,-1.558062 -3.5828788,-3.223837 m 12.7800128,2.933248 c 0.855014,1.3518275 1.523829,1.3292835 2.534148,1.3292835 C 18.695533,10.250648 18.14278,9.4298635 17.878927,9.0107065 L 16.317526,6.5124615 C 16.16556,5.7409455 15.766442,5.0195265 15.1686,4.4826385 c 0.201229,-0.07598 0.368224,-0.156141 0.468421,-0.232123 -1.019504,0 -2.029824,-0.517684 -2.585917,-0.517684 -0.35737,0 -0.586988,0.213753 -0.586988,0.495974 0.02255,0.314786 0.346515,0.634581 0.945192,0.634581 0.135266,0 0.30894,-0.01754 0.499315,-0.04927 0.323971,0.451721 0.585318,0.860024 0.585318,1.442837 0,1.093816 -1.307571,1.946326 -2.627667,1.946326 -0.07515,0 -0.14612,-0.0033 -0.220433,-0.0084 -0.119401,-0.271367 -0.517684,-0.726428 -0.517684,-1.244113 0,-0.869208 0.566947,-1.578937 0.566947,-2.439796 0,-0.535219 -0.260511,-0.866704 -0.360708,-1.004474 0.161984,-0.150296 0.338999,-0.334825 0.380748,-0.461742 -0.09435,0.04091 -0.206239,0.04592 -0.369059,0.04592 -0.632911,0 -1.148925,-0.164489 -1.65158,-0.164489 -0.287232,0 -0.364049,0.08851 -0.364049,0.172839 0,0.0309 0.0042,0.06262 0.01252,0.07765 -0.106877,-0.0417 -0.207074,-0.06925 -0.326475,-0.09096 -0.148626,-0.02839 -0.308105,-0.04258 -0.478441,-0.04258 -0.611201,0 -0.828295,0.256337 -0.828295,0.475935 0,0.185364 0.146121,0.524364 0.312281,0.783206 0.237967,-0.120236 0.524364,-0.201228 0.65462,-0.201228 0.324805,0 0.612872,0.30894 0.765672,0.674659 -0.217928,0.02672 -0.259677,0.03591 -0.48011,0.03591 -0.595337,0 -1.000301,-0.212918 -1.083798,-0.212918 -0.0075,0 -0.02338,0.0042 -0.02338,0.01754 0,0.0835 0.168665,0.30393 0.500985,0.425002 0.438361,0.160315 1.094651,0.227112 1.204033,0.245482 0,0.01921 -0.111052,0.226278 -0.235462,0.266357 -0.02588,0.0084 -0.04675,0.0092 -0.07765,0.0025 -0.457566,-0.09018 -0.585317,-0.128586 -1.165625,-0.349019 -0.01753,-0.0067 -0.02839,0.0042 -0.02839,0.02255 0,0.229618 0.594502,0.736447 1.127215,0.930996 -0.445041,0.567784 -1.000298,1.148926 -1.262481,2.034834 -0.07431,0.005 -0.14612,0.0084 -0.220433,0.0084 -1.320095,0 -2.6276648,-0.852509 -2.6276648,-1.946326 0,-0.582812 0.261347,-0.991115 0.585317,-1.442837 0.190374,0.03173 0.363214,0.04927 0.499314,0.04927 0.5986768,0 0.9226478,-0.319795 0.9460268,-0.63458 0,-0.282222 -0.229618,-0.495975 -0.587822,-0.495975 -0.5560938,0 -1.5655778,0.517684 -2.5867518,0.517684 0.101032,0.07598 0.268027,0.156141 0.468421,0.232123 -0.597005,0.536841 -0.996124,1.25826 -1.148089,2.029776 l -1.561398,2.498245 c -0.263017,0.419157 -0.81744,1.2399415 -1.65325,1.8803665 1.010319,0 1.679969,0.02255 2.534983,-1.3292835 l 0.800741,-1.280851 c 0.05928,0.16616 0.131925,0.328145 0.217928,0.486791 l -1.592299,2.5474795 c -0.264686,0.422497 -0.8141,1.235763 -1.65325,1.880363 1.010319,0 1.67997,0.02338 2.534983,-1.327609 l 1.370194,-2.1943175 c 0.102701,0.109382 0.210414,0.216258 0.32397,0.318126 l -1.933801,3.0960895 c -0.265522,0.423332 -0.811595,1.234927 -1.65241501,1.878693 1.01031901,0 1.67996901,0.02421 2.53414701,-1.32761 l 1.885374,-3.018434 c 0.124411,0.07849 0.251328,0.15447 0.383254,0.226278 l -2.302026,3.683074 c -0.265522,0.423332 -0.811595,1.232423 -1.652415,1.878695 1.01032,0 1.679969,0.02338 2.534983,-1.327612 l 2.3696578,-3.79329 c 0.140276,0.05344 0.282222,0.105207 0.426673,0.15113 l -2.6777648,4.285927 c -0.261346,0.417487 -0.819944,1.241607 -1.651579,1.878693 1.009484,0 1.679969,0.02338 2.534148,-1.327609 L 8.220774,11.708496 c 0.02922,0.005 0.05761,0.0092 0.086,0.01503 0.07765,0.247153 0.131926,0.477606 0.131926,0.707224 0,1.435321 -0.941852,2.702813 -2.072407,3.681404 0.07265,0.03173 0.198724,0.04258 0.314785,0.04258 0.233793,0 0.384089,-0.01252 0.49013,-0.0309 -0.262181,0.595337 -0.824954,1.364347 -1.1088458,1.761796 -0.369894,-0.0668 -0.908453,-0.118562 -1.260812,-0.118562 -0.369059,0 -0.410808,0.215423 -0.410808,0.408303 0,0.334824 0.156976,0.601181 0.339,0.749807 0.06847,-0.171169 0.206239,-0.399953 0.887578,-0.399953 0.01336,0 0.03674,0.0017 0.06847,0.0042 -0.198724,0.221268 -0.82245,0.725593 -0.82245,1.131391 0,0.268862 0.294746,0.672154 0.683009,0.672154 -0.02255,-0.08683 -0.02004,-0.16616 -0.02004,-0.226278 0,-0.32898 0.291406,-0.713903 0.537723,-0.982765 -0.0075,0.08015 -0.0034,0.07181 -0.0034,0.165325 0,0.777361 0.07014,1.134731 0.5636068,1.134731 0.242144,0 0.409138,-0.132762 0.466751,-0.172842 -0.320629,-0.294745 -0.337329,-0.526868 -0.337329,-0.962725 8.48e-4,-0.113557 0.0017,-0.224609 0.0034,-0.377408 8.48e-4,-0.100198 -8.48e-4,-0.232124 -0.0167,-0.32731 0.17618,-0.02422 0.247988,-0.02422 0.384089,-0.02422 0,0 0.700543,-0.05595 0.870043,0.308941 0.190374,-0.17451 0.466751,-0.420827 0.466751,-0.692194 0,-0.17952 -0.08517,-0.382419 -0.446712,-0.382419 -0.136936,0 -0.566947,0.08349 -0.926822,0.08349 0.09686,-0.214589 0.52687,-0.844158 0.900103,-1.30089 0.05678,0.177014 0.144451,0.368224 0.339834,0.525199 0.02756,-0.293911 0.19956,-1.223237 0.658796,-1.766806 0.05344,0.367389 0.125246,0.743962 0.125246,1.538023 0,1.932131 -0.464246,3.359102 -1.450351,3.631304 0.128586,0.222939 0.399953,0.424167 0.681339,0.424167 0.36071,0 0.556928,-0.408302 0.757323,-0.793226 0.104372,0.283892 0.392437,0.980261 0.681339,0.980261 0.288901,0 0.577802,-0.696369 0.682175,-0.980261 0.199558,0.384924 0.396612,0.793226 0.757321,0.793226 0.281386,0 0.552754,-0.201228 0.681339,-0.424167 -0.986105,-0.272202 -1.451185,-1.699173 -1.451185,-3.631304 0,-0.794061 0.07181,-1.170635 0.125246,-1.538023 0.460071,0.543568 0.63291,1.472895 0.658795,1.766806 0.196219,-0.156975 0.284726,-0.348185 0.340669,-0.525199 0.3724,0.456731 0.803246,1.086301 0.900103,1.30089 -0.359874,0 -0.790721,-0.08349 -0.926822,-0.08349 -0.360709,0 -0.445876,0.202899 -0.445876,0.382419 0,0.271366 0.276376,0.517683 0.46675,0.692194 0.167831,-0.364884 0.870045,-0.308941 0.870045,-0.308941 0.135266,0 0.207073,0 0.384088,0.02422 -0.0167,0.09519 -0.01753,0.227112 -0.0167,0.32731 0.0017,0.152799 0.0017,0.263851 0.0025,0.377408 0,0.435857 -0.0167,0.66798 -0.337329,0.962725 0.05761,0.04008 0.224607,0.172841 0.46675,0.172841 0.49347,0 0.564443,-0.357369 0.564443,-1.134731 0,-0.09352 0.0025,-0.08517 -0.0042,-0.165325 0.246318,0.268862 0.537724,0.653785 0.537724,0.982765 0,0.06012 0.0034,0.139441 -0.02087,0.226278 0.389099,0 0.684679,-0.403292 0.684679,-0.672154 0,-0.405798 -0.623726,-0.910123 -0.82412,-1.131391 0.03256,-0.0025 0.05595,-0.0042 0.06847,-0.0042 0.682174,0 0.819945,0.228785 0.888413,0.399954 0.182024,-0.148626 0.338999,-0.414982 0.338999,-0.749808 0,-0.192879 -0.04175,-0.408302 -0.410806,-0.408302 -0.35236,0 -0.890084,0.05177 -1.260813,0.118566 -0.284726,-0.397447 -0.845829,-1.166459 -1.108846,-1.761797 0.106041,0.01837 0.257172,0.0309 0.49013,0.0309 0.116896,0 0.242142,-0.01085 0.314785,-0.04258 -1.130555,-0.97859 -2.072407,-2.246082 -2.072407,-3.681403 0,-0.229618 0.05427,-0.460071 0.131926,-0.707224 0.02755,-0.0058 0.05761,-0.01002 0.086,-0.01503 l 2.853944,4.567313 c 0.854179,1.350989 1.524664,1.327609 2.534149,1.327609 -0.831614,-0.637085 -1.390212,-1.461205 -1.651559,-1.878692 l -2.678583,-4.285927 c 0.145286,-0.04592 0.288066,-0.09769 0.428342,-0.15113 l 2.368824,3.79329 c 0.855014,1.35099 1.524665,1.32761 2.534983,1.32761 -0.84082,-0.64627 -1.386893,-1.455361 -1.652415,-1.878694 l -2.301199,-3.683058 c 0.130256,-0.07181 0.258008,-0.147791 0.381584,-0.226279 l 1.886208,3.018434 c 0.855014,1.351824 1.523828,1.32761 2.534148,1.32761 -0.84082,-0.643765 -1.386058,-1.455361 -1.652415,-1.878693 L 14.994925,9.9918035 c 0.113557,-0.101868 0.222103,-0.208744 0.323135,-0.318126 l 1.371864,2.1943175 c 0.854179,1.350989 1.523829,1.327609 2.534148,1.327609 -0.839985,-0.6446 -1.387729,-1.457865 -1.653251,-1.880363 L 15.97936,8.7677295 c 0.08517,-0.158645 0.15781,-0.32063 0.217928,-0.48679 z"     style="fill:#000000;stroke-width:0.83497471" />
    <g id="text845"
       style="font-style:normal;font-variant:normal;font-weight:bold;font-stretch:normal;font-size:7.24637699px;line-height:125%;font-family:\iBundesSans Office\i;-inkscape-font-specification:\iBundesSans Office, Bold\i;font-variant-ligatures:normal;font-variant-caps:normal;font-variant-numeric:normal;font-feature-settings:normal;text-align:start;letter-spacing:0px;word-spacing:0px;writing-mode:lr-tb;text-anchor:start;fill:#000000;fill-opacity:1;stroke:none;stroke-width:0.33967391px;stroke-linecap:butt;stroke-linejoin:miter;stroke-opacity:1"
       aria-label="BMBF"><path       id="path852"       style="stroke-width:0.33967391px"       d="m 4.1848767,25.051898 q 0,0.268115 -0.07971,0.456521 -0.07971,0.188406 -0.210145,0.318841 -0.1304348,0.123188 -0.289855,0.202898 -0.1594203,0.07246 -0.3188406,0.123189 v 0.01449 q 0.173913,0.03623 0.3550724,0.123188 0.1884058,0.08696 0.3405798,0.231884 0.1521739,0.144928 0.2463768,0.347826 0.094203,0.195652 0.094203,0.456522 0,0.311594 -0.1231884,0.572464 -0.1159421,0.253623 -0.3695653,0.442029 -0.2463768,0.181159 -0.6376811,0.289855 -0.384058,0.101449 -0.9202899,0.101449 H 1.0254563 v -5 h 1.1811595 q 0.5507246,0 0.9275362,0.0942 0.3768117,0.08696 0.6086957,0.260869 0.2318841,0.173913 0.3333334,0.42029 0.1086956,0.239131 0.1086956,0.543479 z m -0.9782609,0.07246 q 0,-0.289855 -0.231884,-0.456521 -0.2246377,-0.166667 -0.768116,-0.166667 H 1.9964709 v 1.34058 h 0.2028985 q 0.5217392,0 0.7608696,-0.188406 0.2463768,-0.188406 0.2463768,-0.528986 z m 0.115942,2.137681 q 0,-0.326086 -0.2608695,-0.492753 Q 2.8080651,26.595376 2.3153114,26.595376 H 1.9964709 v 1.355072 h 0.2753623 q 0.557971,0 0.8043478,-0.173913 0.2463768,-0.173913 0.2463768,-0.514493 z" />
      <path id="path854" style="stroke-width:0.33967391px"
            d="M 10.242735,28.733057 H 9.3079521 V 25.740303 H 9.2934593 L 8.0905607,28.733057 H 7.4094013 L 6.2065027,25.740303 H 6.19201 v 2.992754 H 5.2572273 v -5 h 1.0652175 l 1.4565217,3.644928 h 0.014493 l 1.4710145,-3.644928 h 0.9782612 z"/>
      <path id="path856" style="stroke-width:0.33967391px"
            d="m 14.559085,25.051898 q 0,0.268115 -0.07971,0.456521 -0.07971,0.188406 -0.210145,0.318841 -0.130435,0.123188 -0.289855,0.202898 -0.15942,0.07246 -0.318841,0.123189 v 0.01449 q 0.173913,0.03623 0.355073,0.123188 0.188406,0.08696 0.34058,0.231884 0.152174,0.144928 0.246376,0.347826 0.0942,0.195652 0.0942,0.456522 0,0.311594 -0.123188,0.572464 -0.115942,0.253623 -0.369565,0.442029 -0.246377,0.181159 -0.637681,0.289855 -0.384058,0.101449 -0.92029,0.101449 h -1.246377 v -5 h 1.181159 q 0.550725,0 0.927536,0.0942 0.376812,0.08696 0.608696,0.260869 0.231884,0.173913 0.333334,0.42029 0.108695,0.239131 0.108695,0.543479 z m -0.978261,0.07246 q 0,-0.289855 -0.231884,-0.456521 -0.224637,-0.166667 -0.768116,-0.166667 h -0.210145 v 1.34058 h 0.202899 q 0.521739,0 0.760869,-0.188406 0.246377,-0.188406 0.246377,-0.528986 z m 0.115942,2.137681 q 0,-0.326086 -0.260869,-0.492753 -0.253623,-0.173913 -0.746377,-0.173913 h -0.318841 v 1.355072 h 0.275363 q 0.557971,0 0.804347,-0.173913 0.246377,-0.173913 0.246377,-0.514493 z"/>
      <path id="path858" style="stroke-width:0.33967391px"
            d="m 15.631435,28.733057 v -5 h 2.905797 l -0.05797,0.797101 H 16.60245 v 1.442029 h 1.760869 v 0.797102 H 16.60245 v 1.963768 z"/>
    </g>
  </g>
</svg>